<svg xmlns="http://www.w3.org/2000/svg" viewBox="0 0 529.33331 269.33334"><title>MySQL</title><path d="M8.9843731 245.1041306h17.12295958v-67.61453164l26.506666 58.94319853c3.1286666 7.13493315 7.40946649 9.6593331 15.80626628 9.6593331 8.39693312 0 12.51253302-2.52439995 15.6411996-9.6593331l26.50679934-58.94319853v67.61453165h17.1229329v-67.50413165c0-6.58639984-2.63439993-9.76973309-8.06773312-11.41559971-13.00679968-4.06146657-21.73279946-.54893332-25.68386603 8.23226646L67.9259983 232.59119759 42.73599893 174.4166657c-3.78653324-8.78119978-12.67759968-12.29373303-25.68386602-8.23226646-5.43338653 1.64586662-8.0677598 4.82919987-8.0677598 11.41559971v67.50413165M141.92932979 190.06826531h17.11599957v37.25146574c-.16 2.02346662.65066665 6.7734665 10.02799975 6.92093316 4.78666654.07493333 36.93466574 0 37.23599907 0v-44.35266556h17.15466623c.08133333 0-.016 60.48493182-.01466666 60.74226515.096 14.91765296-18.50933287 18.15723288-27.082666 18.4082742h-54.0666653v-11.51979437c.09466666 0 54.02533198.01250667 54.16133197-.00156 11.01999973-1.16406664 9.71866643-6.6411865 9.7173331-8.48491979v-4.49066655h-36.39333243c-16.93199958-.15666667-27.71466598-7.54626648-27.8479993-16.0467996-.012-.78799998.36533332-38.05359905-.008-38.42653238" fill="#005c87"/><path d="M236.66132742 245.1041306h49.22799877c5.76133319 0 11.35999971-1.20719996 15.80533293-3.29266658 7.40799982-3.40266658 11.0306664-8.01306646 11.0306664-14.04999965v-12.51306635c0-4.93959988-4.1159999-9.54946643-12.1839997-12.62293302-4.2799999-1.64626662-9.54799976-2.52439994-14.65199963-2.52439994h-20.74533282c-6.9146665 0-10.20799974-2.08546661-11.03066639-6.6958665-.16533333-.54839998-.16533333-.98746664-.16533333-1.53639996v-7.7927998c0-.4396 0-.87866665.16533333-1.42706663.82266665-3.51253325 2.6346666-4.50053322 8.72533312-5.04893321.49466665 0 1.1533333-.1104 1.64666662-.1104h48.89866545v-11.41506638H265.3093267c-6.91599983 0-10.53733307.43906666-13.83066632 1.4265333-10.20799975 3.18333325-14.65199963 8.23226646-14.65199963 17.01346624v9.98853308c0 7.68333315 8.72533311 14.26933298 23.37866608 15.80573294 1.64533329.11 3.29199992.21986666 4.93866654.21986666h17.78133289c.65866665 0 1.3173333 0 1.81066662.10986667 5.4333332.43906665 7.73866647 1.4265333 9.3853331 3.40266658.98799998.98746664 1.3173333 1.97546662 1.3173333 3.07333326v9.98853308c0 1.2073333-.82399998 2.7442666-2.4706666 4.06093323-1.4813333 1.31719997-3.95066657 2.19533328-7.24399982 2.41519994-.65866665 0-1.15199997.10933333-1.81066662.10933333h-47.25199882v11.41559972M419.54132284 225.2369311c0 11.7447997 8.72666645 18.33079954 26.34266601 19.64799951 1.64666663.10986667 3.29333325.2192 4.93999988.2192h44.61733222v-11.41559972H450.4946554c-10.04399974 0-13.83066632-2.52453327-13.83066632-8.56093312v-59.05306519h-17.12266624v59.16239852M323.65332524 225.83599775v-40.69639898c0-10.3390664 7.25999982-16.60839958 21.6133328-18.58853287 1.48399996-.21986666 3.13466658-.32973332 4.61866655-.32973332h32.50266585c1.6493333 0 3.13333326.10986666 4.78399988.32973332 14.35333298 1.98013329 21.61199946 8.24946646 21.61199946 18.58853287v40.69639898c0 8.3879998-3.08266659 12.87759968-10.18666641 15.8019996l16.86533291 15.2250263h-19.88133284l-13.64399966-12.31769303-13.73866632.86919998H349.8853246c-3.1346666 0-6.43333318-.4396-10.06399975-1.42959997-10.88799973-2.96986659-16.1679996-8.68959978-16.1679996-18.14893288zm18.47999954-.98959997c0 .54999999.16533333 1.09999997.33066666 1.75986662.99066664 4.72973322 5.44399986 7.36919982 12.2079997 7.36919982h15.5559996l-14.28933297-12.89999968h19.88133283l12.46266636 11.25106639c2.29599994-1.22439997 3.8079999-3.09679993 4.3359999-5.49999987.16533332-.54999998.16533332-1.09999997.16533332-1.64999996v-39.04679902c0-.44013332 0-.9901333-.16533333-1.5401333-.99066664-4.39946655-5.4453332-6.92919982-12.0439997-6.92919982h-25.90266602c-7.5879998 0-12.53866635 3.29946658-12.53866635 8.46933312v38.7166657" fill="#e4830f"/><path d="M510.50532057 147.13906639c-10.52399974-.28693333-18.56533287.69213331-25.43866603 3.5915999-1.95333328.82399999-5.06799987.84426665-5.38666653 3.2922666 1.07466664 1.12599996 1.23999997 2.80626659 2.09466661 4.18959989 1.63999996 2.65719993 4.41066656 6.21559984 6.8826665 8.0811998 2.7026666 2.03906661 5.4853332 4.22026656 8.38133312 5.98599985 5.15066654 3.14159992 10.9026664 4.93426654 15.86133294 8.08066646 2.92399992 1.85466662 5.82666652 4.19173323 8.67866645 6.28493318 1.4093333 1.03386664 2.35733327 2.64373326 4.19066656 3.29213325v-.29946666c-.96399998-1.22599997-1.21199997-2.91093326-2.09599995-4.19013323-1.29599997-1.29626663-2.59333327-2.59373327-3.88933323-3.89053324-3.8039999-5.04946654-8.63333312-9.48439976-13.76666633-13.16879967-4.09466656-2.93853326-13.25599967-6.90786649-14.96533296-11.67186637-.1-.1-.2-.2-.29866666-.29946666 2.90133327-.32706666 6.29999985-1.37706663 8.97866645-2.09479995 4.49999988-1.2073333 8.52133312-.89479998 13.16799967-2.09533328 2.09466661-.59839998 4.18933323-1.19679997 6.28533317-1.79586662v-1.1973333c-2.34933327-2.41039994-4.0239999-5.6005332-6.58533316-7.78119981-6.70133317-5.70599986-14.01599965-11.40733305-21.54799947-16.1619996-4.17733323-2.63599993-9.33999976-4.35066655-13.76666632-6.58399983-1.4893333-.75199998-4.1039999-1.1413333-5.08799987-2.3946666-2.32666661-2.96533327-3.59333325-6.7226665-5.38666653-10.17599975-3.75733324-7.23333316-7.44666648-15.1346663-10.7746664-22.74533277-2.26933328-5.19066654-3.75333324-10.30933307-6.58399984-14.96399962-13.58799966-22.34399945-28.21733262-35.82933244-50.8786654-49.08399878-4.81866654-2.8186666-10.62533306-3.93333323-16.75866624-5.38799986-3.29199992-.19866666-6.58533317-.39866666-9.87599975-.59733332-2.01066662-.84133331-4.0999999-3.29866658-5.98666652-4.49066656-7.50666648-4.74266654-26.762666-15.05733295-32.32133252-1.49599996-3.50933325 8.55999979 5.24666653 16.91333291 8.37866645 21.25066614 2.19866661 3.04266659 5.01333321 6.4546665 6.58399984 9.87599975 1.0333333 2.24933328 1.21199997 4.50399989 2.09599995 6.88399983 2.17599994 5.86133319 4.06933323 12.23866636 6.8826665 17.6573329 1.42266662 2.73999992 2.99066658 5.62933318 4.7893332 8.08133312 1.10266664 1.50399996 2.99199993 2.16533328 3.29199992 4.48933322-1.84933329 2.58533327-1.95466662 6.59999984-2.99333326 9.87599976-4.67599988 14.74799963-2.91466659 33.07999917 3.89066657 43.9959989 2.08933328 3.35066658 7.0066665 10.53693307 13.76666633 7.7811998 5.91333318-2.41053327 4.59333321-9.87453308 6.28533317-16.46119959.384-1.4933333.148-2.5906666.89733331-3.59066657v.29866666c1.79599996 3.59066657 3.59199991 7.18399982 5.38799987 10.7746664 3.9879999 6.41999983 11.06266639 13.12999966 17.05866624 17.65759955 3.10933325 2.34853328 5.5573332 6.40839984 9.5773331 7.7823998v-.29946665h-.3c-.77866665-1.21466664-1.99733328-1.71826663-2.99199993-2.6938666-2.3426666-2.29679994-4.94666654-5.15199987-6.88399982-7.78173314-5.4533332-7.40359982-10.27333308-15.50759961-14.66399964-23.94226607-2.09733328-4.0279999-3.91866657-8.47199979-5.68666652-12.57066635-.68133332-1.5813333-.67466665-3.97066657-2.09466662-4.78799988-1.93599995 3.00133326-4.78799988 5.43199986-6.28533317 8.97866644-2.3946666 5.66799986-2.70399993 12.58266635-3.59199991 19.7519995-.52399999.18933334-.29066666.05866667-.59866665.3-4.16666657-1.00666664-5.6333332-5.2973332-7.1826665-8.97866644-3.91733323-9.31066644-4.6453332-24.30133273-1.19599996-35.01733246.89199998-2.77199993 4.9213332-11.50533305 3.29199992-14.06666632-.77866665-2.55599993-3.34933325-4.03333323-4.78933322-5.98533318-1.77866662-2.4146666-3.55733324-5.5933332-4.78799988-8.38133312-3.20666658-7.25866649-4.70533321-15.40799962-8.08133313-22.74533277-1.6133333-3.50666658-4.34266656-7.05599982-6.58399983-10.17599974-2.48133328-3.45466658-5.25866654-5.99733319-7.1826665-10.17599975-.68399997-1.4853333-1.61466662-3.86133324-.59866664-5.38666653.32266666-1.0293333.77866664-1.45999996 1.79599995-1.79599996 1.73599996-1.33866663 6.5706665.44533333 8.3799998 1.1973333 4.79866654 1.9933333 8.80266644 3.89199991 12.869333 6.58399984 1.95333329 1.29466664 3.92533324 3.79733324 6.28399985 4.48933322h2.6946666c4.2119999.96933331 8.9333331.30133333 12.86799967 1.4973333 6.9586665 2.11333328 13.19199968 5.40266653 18.85599953 8.97866644 17.25066624 10.89199973 31.35333255 26.39599934 41.00133231 44.89333221 1.5533333 2.97733326 2.22266661 5.81999986 3.59066658 8.97866645 2.7586666 6.36933317 6.23333318 12.92399967 8.97866644 19.15466618 2.7386666 6.21333318 5.40799987 12.48533302 9.2773331 17.6573329 2.03599995 2.71999993 9.89599975 4.17733322 13.46799967 5.68666652 2.50533327 1.05866664 6.6066665 2.16133328 8.97866644 3.59199991 4.53066655 2.7306666 8.91999977 5.98533318 13.16799967 8.9781331 2.12399995 1.49626664 8.65466645 4.77706656 8.97866644 7.48226649" fill="#005c87"/><path d="M376.72665725 33.1093359c-2.19333328-.03866666-3.74533324.24-5.38666653.59866666v.29999999h.29866666c1.04666664 2.15066661 2.89599992 3.53466658 4.18933322 5.38666653.99866665 2.09599995 1.99599995 4.19066656 2.99333326 6.28533318.1-.1.2-.19866666.3-.29866666 1.85199995-1.30666664 2.7026666-3.39599992 2.69333326-6.58533317-.74399998-.78133331-.85333331-1.76133329-1.4973333-2.69333327-.8573333-1.2413333-2.5106666-1.94799995-3.59066657-2.99333325" fill="#005c87" fill-rule="evenodd"/><path d="M503.47865408 233.3645309c0 7.53759981 5.95733318 12.61879968 12.61866635 12.61879968 6.66399983 0 12.61866635-5.08119987 12.61866635-12.61879968 0-7.53746648-5.95466652-12.61866635-12.61866635-12.61866635-6.66133317 0-12.61866635 5.08119987-12.61866635 12.61866635zm22.4106661 0c0 5.72093319-4.37333322 9.99373308-9.79199975 9.99373308-5.48399986 0-9.79199975-4.27279989-9.79199975-9.99373308 0-5.72079986 4.30799989-9.99373308 9.79199975-9.99373308 5.41866653 0 9.79199976 4.27293322 9.79199976 9.99373308zm-6.39199983 7.19999982h2.82533326l-4.13866656-6.32493318c2.22133327-.23546666 3.9039999-1.3125333 3.9039999-3.93746656 0-2.92719993-1.85066662-4.1375999-5.41866653-4.1375999h-5.61866653v14.39999964h2.4226666v-6.22493318h2.25466662zm-6.02399985-8.24373313v-4.13746656h2.79333326c1.44666663 0 3.19599992.2688 3.19599992 1.94999995 0 2.01879995-1.5813333 2.18746661-3.39866658 2.18746661h-2.5906666" fill="#e4830f" fill-rule="evenodd"/><text transform="matrix(1.33333 0 0 1.33333 6.78437316 146.62919973)" font-weight="500" font-size="29.38400078" font-family="HelveticaNeue" fill="#989696"><tspan y="0" x="0 19.599129 35.93663 57.151878 73.489388 83.274254 99.611763 115.94926 124.11802 140.45552">Powered by</tspan></text></svg>